<?xml version="1.0" encoding="utf-8" standalone="no"?>
<!DOCTYPE svg PUBLIC "-//W3C//DTD SVG 1.1//EN"
  "http://www.w3.org/Graphics/SVG/1.1/DTD/svg11.dtd">
<svg xmlns:xlink="http://www.w3.org/1999/xlink" width="655.263125pt" height="280.276563pt" viewBox="0 0 655.263125 280.276563" xmlns="http://www.w3.org/2000/svg" version="1.1">
 <metadata>
  <rdf:RDF xmlns:dc="http://purl.org/dc/elements/1.1/" xmlns:cc="http://creativecommons.org/ns#" xmlns:rdf="http://www.w3.org/1999/02/22-rdf-syntax-ns#">
   <cc:Work>
    <dc:type rdf:resource="http://purl.org/dc/dcmitype/StillImage"/>
    <dc:date>2026-10-06T06:55:22.273510</dc:date>
    <dc:format>image/svg+xml</dc:format>
    <dc:creator>
     <cc:Agent>
      <dc:title>Matplotlib v3.11.2, https://matplotlib.org/</dc:title>
     </cc:Agent>
    </dc:creator>
   </cc:Work>
  </rdf:RDF>
 </metadata>
 <defs>
  <style type="text/css">*{stroke-linejoin: round; stroke-linecap: butt}</style>
 </defs>
 <g id="figure_1">
  <g id="patch_1">
   <path d="M 0 280.276563 
L 655.263125 280.276563 
L 655.263125 0 
L 0 0 
z
" style="fill: #ffffff"/>
  </g>
  <g id="axes_1">
   <g id="patch_2">
    <path d="M 30.103125 240.273438 
L 322.263125 240.273438 
L 322.263125 22.318125 
L 30.103125 22.318125 
z
" style="fill: #ffffff"/>
   </g>
   <g id="matplotlib.axis_1">
    <g id="xtick_1">
     <g id="line2d_1">
      <path d="M 43.383125 240.273438 
L 43.383125 22.318125 
" clip-path="url(#p32698297f5)" style="fill: none; stroke: #b0b0b0; stroke-opacity: 0.25; stroke-width: 0.8; stroke-linecap: square"/>
     </g>
     <g id="line2d_2">
      <defs>
       <path id="m1d74b7d400" d="M 0 0 
L 0 3.5 
" style="stroke: #000000; stroke-width: 0.8"/>
      </defs>
      <g>
       <use xlink:href="#m1d74b7d400" x="43.383125" y="240.273438" style="stroke: #000000; stroke-width: 0.8"/>
      </g>
     </g>
     <g id="text_1">
      <!-- $\mathdefault{0}$ -->
      <g transform="translate(40.183125 254.871094) scale(0.1 -0.1)">
       <defs>
        <path id="DejaVuSans-13" d="M 2034 4250 
Q 1547 4250 1301 3770 
Q 1056 3291 1056 2328 
Q 1056 1369 1301 889 
Q 1547 409 2034 409 
Q 2525 409 2770 889 
Q 3016 1369 3016 2328 
Q 3016 3291 2770 3770 
Q 2525 4250 2034 4250 
z
M 2034 4750 
Q 2819 4750 3233 4129 
Q 3647 3509 3647 2328 
Q 3647 1150 3233 529 
Q 2819 -91 2034 -91 
Q 1250 -91 836 529 
Q 422 1150 422 2328 
Q 422 3509 836 4129 
Q 1250 4750 2034 4750 
z
" transform="scale(0.015625)"/>
       </defs>
       <use xlink:href="#DejaVuSans-13" transform="translate(0 0.78125)"/>
      </g>
     </g>
    </g>
    <g id="xtick_2">
     <g id="line2d_3">
      <path d="M 125.627272 240.273438 
L 125.627272 22.318125 
" clip-path="url(#p32698297f5)" style="fill: none; stroke: #b0b0b0; stroke-opacity: 0.25; stroke-width: 0.8; stroke-linecap: square"/>
     </g>
     <g id="line2d_4">
      <g>
       <use xlink:href="#m1d74b7d400" x="125.627272" y="240.273438" style="stroke: #000000; stroke-width: 0.8"/>
      </g>
     </g>
     <g id="text_2">
      <!-- $\mathdefault{10^{0}}$ -->
      <g transform="translate(116.827272 256.673438) scale(0.1 -0.1)">
       <defs>
        <path id="DejaVuSans-14" d="M 794 531 
L 1825 531 
L 1825 4091 
L 703 3866 
L 703 4441 
L 1819 4666 
L 2450 4666 
L 2450 531 
L 3481 531 
L 3481 0 
L 794 0 
L 794 531 
z
" transform="scale(0.015625)"/>
       </defs>
       <use xlink:href="#DejaVuSans-14" transform="translate(0 0.746875)"/>
       <use xlink:href="#DejaVuSans-13" transform="translate(63.623047 0.746875)"/>
       <use xlink:href="#DejaVuSans-13" transform="translate(128.203125 42.046875) scale(0.7)"/>
      </g>
     </g>
    </g>
    <g id="xtick_3">
     <g id="line2d_5">
      <path d="M 199.647005 240.273438 
L 199.647005 22.318125 
" clip-path="url(#p32698297f5)" style="fill: none; stroke: #b0b0b0; stroke-opacity: 0.25; stroke-width: 0.8; stroke-linecap: square"/>
     </g>
     <g id="line2d_6">
      <g>
       <use xlink:href="#m1d74b7d400" x="199.647005" y="240.273438" style="stroke: #000000; stroke-width: 0.8"/>
      </g>
     </g>
     <g id="text_3">
      <!-- $\mathdefault{10^{1}}$ -->
      <g transform="translate(190.847005 256.573438) scale(0.1 -0.1)">
       <use xlink:href="#DejaVuSans-14" transform="translate(0 0.665625)"/>
       <use xlink:href="#DejaVuSans-13" transform="translate(63.623047 0.665625)"/>
       <use xlink:href="#DejaVuSans-14" transform="translate(128.203125 41.965625) scale(0.7)"/>
      </g>
     </g>
    </g>
    <g id="xtick_4">
     <g id="line2d_7">
      <path d="M 273.666737 240.273438 
L 273.666737 22.318125 
" clip-path="url(#p32698297f5)" style="fill: none; stroke: #b0b0b0; stroke-opacity: 0.25; stroke-width: 0.8; stroke-linecap: square"/>
     </g>
     <g id="line2d_8">
      <g>
       <use xlink:href="#m1d74b7d400" x="273.666737" y="240.273438" style="stroke: #000000; stroke-width: 0.8"/>
      </g>
     </g>
     <g id="text_4">
      <!-- $\mathdefault{10^{2}}$ -->
      <g transform="translate(264.866737 256.673438) scale(0.1 -0.1)">
       <defs>
        <path id="DejaVuSans-15" d="M 1228 531 
L 3431 531 
L 3431 0 
L 469 0 
L 469 531 
Q 828 903 1448 1529 
Q 2069 2156 2228 2338 
Q 2531 2678 2651 2914 
Q 2772 3150 2772 3378 
Q 2772 3750 2511 3984 
Q 2250 4219 1831 4219 
Q 1534 4219 1204 4116 
Q 875 4013 500 3803 
L 500 4441 
Q 881 4594 1212 4672 
Q 1544 4750 1819 4750 
Q 2544 4750 2975 4387 
Q 3406 4025 3406 3419 
Q 3406 3131 3298 2873 
Q 3191 2616 2906 2266 
Q 2828 2175 2409 1742 
Q 1991 1309 1228 531 
z
" transform="scale(0.015625)"/>
       </defs>
       <use xlink:href="#DejaVuSans-14" transform="translate(0 0.746875)"/>
       <use xlink:href="#DejaVuSans-13" transform="translate(63.623047 0.746875)"/>
       <use xlink:href="#DejaVuSans-15" transform="translate(128.203125 42.046875) scale(0.7)"/>
      </g>
     </g>
    </g>
    <g id="text_5">
     <!-- λ -->
     <g transform="translate(173.22375 270.674219) scale(0.1 -0.1)">
      <defs>
       <path id="DejaVuSans-34f" d="M 1981 4316 
L 3597 0 
L 2988 0 
L 2006 2588 
L 800 0 
L 191 0 
L 1725 3356 
L 1494 3975 
Q 1347 4369 1013 4369 
L 713 4369 
L 713 4863 
L 1078 4856 
Q 1784 4847 1981 4316 
z
" transform="scale(0.015625)"/>
      </defs>
      <use xlink:href="#DejaVuSans-34f"/>
     </g>
    </g>
   </g>
   <g id="matplotlib.axis_2">
    <g id="ytick_1">
     <g id="line2d_9">
      <path d="M 30.103125 207.863335 
L 322.263125 207.863335 
" clip-path="url(#p32698297f5)" style="fill: none; stroke: #b0b0b0; stroke-opacity: 0.25; stroke-width: 0.8; stroke-linecap: square"/>
     </g>
     <g id="line2d_10">
      <defs>
       <path id="m773320a767" d="M 0 0 
L -3.5 0 
" style="stroke: #000000; stroke-width: 0.8"/>
      </defs>
      <g>
       <use xlink:href="#m773320a767" x="30.103125" y="207.863335" style="stroke: #000000; stroke-width: 0.8"/>
      </g>
     </g>
     <g id="text_6">
      <!-- 0.5 -->
      <g transform="translate(7.2 211.662163) scale(0.1 -0.1)">
       <defs>
        <path id="DejaVuSans-11" d="M 684 794 
L 1344 794 
L 1344 0 
L 684 0 
L 684 794 
z
" transform="scale(0.015625)"/>
        <path id="DejaVuSans-18" d="M 691 4666 
L 3169 4666 
L 3169 4134 
L 1269 4134 
L 1269 2991 
Q 1406 3038 1543 3061 
Q 1681 3084 1819 3084 
Q 2600 3084 3056 2656 
Q 3513 2228 3513 1497 
Q 3513 744 3044 326 
Q 2575 -91 1722 -91 
Q 1428 -91 1123 -41 
Q 819 9 494 109 
L 494 744 
Q 775 591 1075 516 
Q 1375 441 1709 441 
Q 2250 441 2565 725 
Q 2881 1009 2881 1497 
Q 2881 1984 2565 2268 
Q 2250 2553 1709 2553 
Q 1456 2553 1204 2497 
Q 953 2441 691 2322 
L 691 4666 
z
" transform="scale(0.015625)"/>
       </defs>
       <use xlink:href="#DejaVuSans-13"/>
       <use xlink:href="#DejaVuSans-11" transform="translate(63.625 0)"/>
       <use xlink:href="#DejaVuSans-18" transform="translate(95.40625 0)"/>
      </g>
     </g>
    </g>
    <g id="ytick_2">
     <g id="line2d_11">
      <path d="M 30.103125 174.705896 
L 322.263125 174.705896 
" clip-path="url(#p32698297f5)" style="fill: none; stroke: #b0b0b0; stroke-opacity: 0.25; stroke-width: 0.8; stroke-linecap: square"/>
     </g>
     <g id="line2d_12">
      <g>
       <use xlink:href="#m773320a767" x="30.103125" y="174.705896" style="stroke: #000000; stroke-width: 0.8"/>
      </g>
     </g>
     <g id="text_7">
      <!-- 1.0 -->
      <g transform="translate(7.2 178.504724) scale(0.1 -0.1)">
       <use xlink:href="#DejaVuSans-14"/>
       <use xlink:href="#DejaVuSans-11" transform="translate(63.625 0)"/>
       <use xlink:href="#DejaVuSans-13" transform="translate(95.40625 0)"/>
      </g>
     </g>
    </g>
    <g id="ytick_3">
     <g id="line2d_13">
      <path d="M 30.103125 141.548457 
L 322.263125 141.548457 
" clip-path="url(#p32698297f5)" style="fill: none; stroke: #b0b0b0; stroke-opacity: 0.25; stroke-width: 0.8; stroke-linecap: square"/>
     </g>
     <g id="line2d_14">
      <g>
       <use xlink:href="#m773320a767" x="30.103125" y="141.548457" style="stroke: #000000; stroke-width: 0.8"/>
      </g>
     </g>
     <g id="text_8">
      <!-- 1.5 -->
      <g transform="translate(7.2 145.347285) scale(0.1 -0.1)">
       <use xlink:href="#DejaVuSans-14"/>
       <use xlink:href="#DejaVuSans-11" transform="translate(63.625 0)"/>
       <use xlink:href="#DejaVuSans-18" transform="translate(95.40625 0)"/>
      </g>
     </g>
    </g>
    <g id="ytick_4">
     <g id="line2d_15">
      <path d="M 30.103125 108.391017 
L 322.263125 108.391017 
" clip-path="url(#p32698297f5)" style="fill: none; stroke: #b0b0b0; stroke-opacity: 0.25; stroke-width: 0.8; stroke-linecap: square"/>
     </g>
     <g id="line2d_16">
      <g>
       <use xlink:href="#m773320a767" x="30.103125" y="108.391017" style="stroke: #000000; stroke-width: 0.8"/>
      </g>
     </g>
     <g id="text_9">
      <!-- 2.0 -->
      <g transform="translate(7.2 112.189846) scale(0.1 -0.1)">
       <use xlink:href="#DejaVuSans-15"/>
       <use xlink:href="#DejaVuSans-11" transform="translate(63.625 0)"/>
       <use xlink:href="#DejaVuSans-13" transform="translate(95.40625 0)"/>
      </g>
     </g>
    </g>
    <g id="ytick_5">
     <g id="line2d_17">
      <path d="M 30.103125 75.233578 
L 322.263125 75.233578 
" clip-path="url(#p32698297f5)" style="fill: none; stroke: #b0b0b0; stroke-opacity: 0.25; stroke-width: 0.8; stroke-linecap: square"/>
     </g>
     <g id="line2d_18">
      <g>
       <use xlink:href="#m773320a767" x="30.103125" y="75.233578" style="stroke: #000000; stroke-width: 0.8"/>
      </g>
     </g>
     <g id="text_10">
      <!-- 2.5 -->
      <g transform="translate(7.2 79.032407) scale(0.1 -0.1)">
       <use xlink:href="#DejaVuSans-15"/>
       <use xlink:href="#DejaVuSans-11" transform="translate(63.625 0)"/>
       <use xlink:href="#DejaVuSans-18" transform="translate(95.40625 0)"/>
      </g>
     </g>
    </g>
    <g id="ytick_6">
     <g id="line2d_19">
      <path d="M 30.103125 42.076139 
L 322.263125 42.076139 
" clip-path="url(#p32698297f5)" style="fill: none; stroke: #b0b0b0; stroke-opacity: 0.25; stroke-width: 0.8; stroke-linecap: square"/>
     </g>
     <g id="line2d_20">
      <g>
       <use xlink:href="#m773320a767" x="30.103125" y="42.076139" style="stroke: #000000; stroke-width: 0.8"/>
      </g>
     </g>
     <g id="text_11">
      <!-- 3.0 -->
      <g transform="translate(7.2 45.874968) scale(0.1 -0.1)">
       <defs>
        <path id="DejaVuSans-16" d="M 2597 2516 
Q 3050 2419 3304 2112 
Q 3559 1806 3559 1356 
Q 3559 666 3084 287 
Q 2609 -91 1734 -91 
Q 1441 -91 1130 -33 
Q 819 25 488 141 
L 488 750 
Q 750 597 1062 519 
Q 1375 441 1716 441 
Q 2309 441 2620 675 
Q 2931 909 2931 1356 
Q 2931 1769 2642 2001 
Q 2353 2234 1838 2234 
L 1294 2234 
L 1294 2753 
L 1863 2753 
Q 2328 2753 2575 2939 
Q 2822 3125 2822 3475 
Q 2822 3834 2567 4026 
Q 2313 4219 1838 4219 
Q 1578 4219 1281 4162 
Q 984 4106 628 3988 
L 628 4550 
Q 988 4650 1302 4700 
Q 1616 4750 1894 4750 
Q 2613 4750 3031 4423 
Q 3450 4097 3450 3541 
Q 3450 3153 3228 2886 
Q 3006 2619 2597 2516 
z
" transform="scale(0.015625)"/>
       </defs>
       <use xlink:href="#DejaVuSans-16"/>
       <use xlink:href="#DejaVuSans-11" transform="translate(63.625 0)"/>
       <use xlink:href="#DejaVuSans-13" transform="translate(95.40625 0)"/>
      </g>
     </g>
    </g>
   </g>
   <g id="line2d_21">
    <path d="M 43.383125 203.860975 
L 125.627272 202.092909 
L 199.647005 178.420062 
L 234.963392 116.369451 
L 251.384578 92.734701 
L 273.666737 62.172187 
L 308.983125 32.225185 
" clip-path="url(#p32698297f5)" style="fill: none; stroke: #2563eb; stroke-width: 1.5; stroke-linecap: square"/>
    <defs>
     <path id="m8a4181baf2" d="M 0 3 
C 0.795609 3 1.55874 2.683901 2.12132 2.12132 
C 2.683901 1.55874 3 0.795609 3 0 
C 3 -0.795609 2.683901 -1.55874 2.12132 -2.12132 
C 1.55874 -2.683901 0.795609 -3 0 -3 
C -0.795609 -3 -1.55874 -2.683901 -2.12132 -2.12132 
C -2.683901 -1.55874 -3 -0.795609 -3 0 
C -3 0.795609 -2.683901 1.55874 -2.12132 2.12132 
C -1.55874 2.683901 -0.795609 3 0 3 
z
" style="stroke: #2563eb"/>
    </defs>
    <g clip-path="url(#p32698297f5)">
     <use xlink:href="#m8a4181baf2" x="43.383125" y="203.860975" style="fill: #2563eb; stroke: #2563eb"/>
     <use xlink:href="#m8a4181baf2" x="125.627272" y="202.092909" style="fill: #2563eb; stroke: #2563eb"/>
     <use xlink:href="#m8a4181baf2" x="199.647005" y="178.420062" style="fill: #2563eb; stroke: #2563eb"/>
     <use xlink:href="#m8a4181baf2" x="234.963392" y="116.369451" style="fill: #2563eb; stroke: #2563eb"/>
     <use xlink:href="#m8a4181baf2" x="251.384578" y="92.734701" style="fill: #2563eb; stroke: #2563eb"/>
     <use xlink:href="#m8a4181baf2" x="273.666737" y="62.172187" style="fill: #2563eb; stroke: #2563eb"/>
     <use xlink:href="#m8a4181baf2" x="308.983125" y="32.225185" style="fill: #2563eb; stroke: #2563eb"/>
    </g>
   </g>
   <g id="line2d_22">
    <path d="M 43.383125 230.147795 
L 125.627272 230.366378 
L 199.647005 221.623264 
L 234.963392 204.326196 
L 251.384578 195.472503 
L 273.666737 161.617197 
L 308.983125 73.666175 
" clip-path="url(#p32698297f5)" style="fill: none; stroke: #dc2626; stroke-width: 1.5; stroke-linecap: square"/>
    <defs>
     <path id="m4837b572c6" d="M -3 3 
L 3 3 
L 3 -3 
L -3 -3 
z
" style="stroke: #dc2626; stroke-linejoin: miter"/>
    </defs>
    <g clip-path="url(#p32698297f5)">
     <use xlink:href="#m4837b572c6" x="43.383125" y="230.147795" style="fill: #dc2626; stroke: #dc2626; stroke-linejoin: miter"/>
     <use xlink:href="#m4837b572c6" x="125.627272" y="230.366378" style="fill: #dc2626; stroke: #dc2626; stroke-linejoin: miter"/>
     <use xlink:href="#m4837b572c6" x="199.647005" y="221.623264" style="fill: #dc2626; stroke: #dc2626; stroke-linejoin: miter"/>
     <use xlink:href="#m4837b572c6" x="234.963392" y="204.326196" style="fill: #dc2626; stroke: #dc2626; stroke-linejoin: miter"/>
     <use xlink:href="#m4837b572c6" x="251.384578" y="195.472503" style="fill: #dc2626; stroke: #dc2626; stroke-linejoin: miter"/>
     <use xlink:href="#m4837b572c6" x="273.666737" y="161.617197" style="fill: #dc2626; stroke: #dc2626; stroke-linejoin: miter"/>
     <use xlink:href="#m4837b572c6" x="308.983125" y="73.666175" style="fill: #dc2626; stroke: #dc2626; stroke-linejoin: miter"/>
    </g>
   </g>
   <g id="line2d_23">
    <path d="M 43.383125 213.767046 
L 125.627272 212.040233 
L 199.647005 204.782262 
L 234.963392 188.297945 
L 251.384578 170.554453 
L 273.666737 107.271062 
L 308.983125 47.236716 
" clip-path="url(#p32698297f5)" style="fill: none; stroke: #16a34a; stroke-width: 1.5; stroke-linecap: square"/>
    <defs>
     <path id="m48ce4bd8bd" d="M 0 -3 
L -3 3 
L 3 3 
z
" style="stroke: #16a34a; stroke-linejoin: miter"/>
    </defs>
    <g clip-path="url(#p32698297f5)">
     <use xlink:href="#m48ce4bd8bd" x="43.383125" y="213.767046" style="fill: #16a34a; stroke: #16a34a; stroke-linejoin: miter"/>
     <use xlink:href="#m48ce4bd8bd" x="125.627272" y="212.040233" style="fill: #16a34a; stroke: #16a34a; stroke-linejoin: miter"/>
     <use xlink:href="#m48ce4bd8bd" x="199.647005" y="204.782262" style="fill: #16a34a; stroke: #16a34a; stroke-linejoin: miter"/>
     <use xlink:href="#m48ce4bd8bd" x="234.963392" y="188.297945" style="fill: #16a34a; stroke: #16a34a; stroke-linejoin: miter"/>
     <use xlink:href="#m48ce4bd8bd" x="251.384578" y="170.554453" style="fill: #16a34a; stroke: #16a34a; stroke-linejoin: miter"/>
     <use xlink:href="#m48ce4bd8bd" x="273.666737" y="107.271062" style="fill: #16a34a; stroke: #16a34a; stroke-linejoin: miter"/>
     <use xlink:href="#m48ce4bd8bd" x="308.983125" y="47.236716" style="fill: #16a34a; stroke: #16a34a; stroke-linejoin: miter"/>
    </g>
   </g>
   <g id="patch_3">
    <path d="M 30.103125 240.273438 
L 30.103125 22.318125 
" style="fill: none; stroke: #000000; stroke-width: 0.8; stroke-linejoin: miter; stroke-linecap: square"/>
   </g>
   <g id="patch_4">
    <path d="M 322.263125 240.273438 
L 322.263125 22.318125 
" style="fill: none; stroke: #000000; stroke-width: 0.8; stroke-linejoin: miter; stroke-linecap: square"/>
   </g>
   <g id="patch_5">
    <path d="M 30.103125 240.273438 
L 322.263125 240.273438 
" style="fill: none; stroke: #000000; stroke-width: 0.8; stroke-linejoin: miter; stroke-linecap: square"/>
   </g>
   <g id="patch_6">
    <path d="M 30.103125 22.318125 
L 322.263125 22.318125 
" style="fill: none; stroke: #000000; stroke-width: 0.8; stroke-linejoin: miter; stroke-linecap: square"/>
   </g>
   <g id="text_12">
    <!-- B acquisition NLL -->
    <g transform="translate(124.538125 16.318125) scale(0.12 -0.12)">
     <defs>
      <path id="DejaVuSans-25" d="M 1259 2228 
L 1259 519 
L 2272 519 
Q 2781 519 3026 730 
Q 3272 941 3272 1375 
Q 3272 1813 3026 2020 
Q 2781 2228 2272 2228 
L 1259 2228 
z
M 1259 4147 
L 1259 2741 
L 2194 2741 
Q 2656 2741 2882 2914 
Q 3109 3088 3109 3444 
Q 3109 3797 2882 3972 
Q 2656 4147 2194 4147 
L 1259 4147 
z
M 628 4666 
L 2241 4666 
Q 2963 4666 3353 4366 
Q 3744 4066 3744 3513 
Q 3744 3084 3544 2831 
Q 3344 2578 2956 2516 
Q 3422 2416 3680 2098 
Q 3938 1781 3938 1306 
Q 3938 681 3513 340 
Q 3088 0 2303 0 
L 628 0 
L 628 4666 
z
" transform="scale(0.015625)"/>
      <path id="DejaVuSans-3" transform="scale(0.015625)"/>
      <path id="DejaVuSans-44" d="M 2194 1759 
Q 1497 1759 1228 1600 
Q 959 1441 959 1056 
Q 959 750 1161 570 
Q 1363 391 1709 391 
Q 2188 391 2477 730 
Q 2766 1069 2766 1631 
L 2766 1759 
L 2194 1759 
z
M 3341 1997 
L 3341 0 
L 2766 0 
L 2766 531 
Q 2569 213 2275 61 
Q 1981 -91 1556 -91 
Q 1019 -91 701 211 
Q 384 513 384 1019 
Q 384 1609 779 1909 
Q 1175 2209 1959 2209 
L 2766 2209 
L 2766 2266 
Q 2766 2663 2505 2880 
Q 2244 3097 1772 3097 
Q 1472 3097 1187 3025 
Q 903 2953 641 2809 
L 641 3341 
Q 956 3463 1253 3523 
Q 1550 3584 1831 3584 
Q 2591 3584 2966 3190 
Q 3341 2797 3341 1997 
z
" transform="scale(0.015625)"/>
      <path id="DejaVuSans-46" d="M 3122 3366 
L 3122 2828 
Q 2878 2963 2633 3030 
Q 2388 3097 2138 3097 
Q 1578 3097 1268 2742 
Q 959 2388 959 1747 
Q 959 1106 1268 751 
Q 1578 397 2138 397 
Q 2388 397 2633 464 
Q 2878 531 3122 666 
L 3122 134 
Q 2881 22 2623 -34 
Q 2366 -91 2075 -91 
Q 1284 -91 818 406 
Q 353 903 353 1747 
Q 353 2603 823 3093 
Q 1294 3584 2113 3584 
Q 2378 3584 2631 3529 
Q 2884 3475 3122 3366 
z
" transform="scale(0.015625)"/>
      <path id="DejaVuSans-54" d="M 947 1747 
Q 947 1113 1208 752 
Q 1469 391 1925 391 
Q 2381 391 2643 752 
Q 2906 1113 2906 1747 
Q 2906 2381 2643 2742 
Q 2381 3103 1925 3103 
Q 1469 3103 1208 2742 
Q 947 2381 947 1747 
z
M 2906 525 
Q 2725 213 2448 61 
Q 2172 -91 1784 -91 
Q 1150 -91 751 415 
Q 353 922 353 1747 
Q 353 2572 751 3078 
Q 1150 3584 1784 3584 
Q 2172 3584 2448 3432 
Q 2725 3281 2906 2969 
L 2906 3500 
L 3481 3500 
L 3481 -1331 
L 2906 -1331 
L 2906 525 
z
" transform="scale(0.015625)"/>
      <path id="DejaVuSans-58" d="M 544 1381 
L 544 3500 
L 1119 3500 
L 1119 1403 
Q 1119 906 1312 657 
Q 1506 409 1894 409 
Q 2359 409 2629 706 
Q 2900 1003 2900 1516 
L 2900 3500 
L 3475 3500 
L 3475 0 
L 2900 0 
L 2900 538 
Q 2691 219 2414 64 
Q 2138 -91 1772 -91 
Q 1169 -91 856 284 
Q 544 659 544 1381 
z
M 1991 3584 
L 1991 3584 
z
" transform="scale(0.015625)"/>
      <path id="DejaVuSans-4c" d="M 603 3500 
L 1178 3500 
L 1178 0 
L 603 0 
L 603 3500 
z
M 603 4863 
L 1178 4863 
L 1178 4134 
L 603 4134 
L 603 4863 
z
" transform="scale(0.015625)"/>
      <path id="DejaVuSans-56" d="M 2834 3397 
L 2834 2853 
Q 2591 2978 2328 3040 
Q 2066 3103 1784 3103 
Q 1356 3103 1142 2972 
Q 928 2841 928 2578 
Q 928 2378 1081 2264 
Q 1234 2150 1697 2047 
L 1894 2003 
Q 2506 1872 2764 1633 
Q 3022 1394 3022 966 
Q 3022 478 2636 193 
Q 2250 -91 1575 -91 
Q 1294 -91 989 -36 
Q 684 19 347 128 
L 347 722 
Q 666 556 975 473 
Q 1284 391 1588 391 
Q 1994 391 2212 530 
Q 2431 669 2431 922 
Q 2431 1156 2273 1281 
Q 2116 1406 1581 1522 
L 1381 1569 
Q 847 1681 609 1914 
Q 372 2147 372 2553 
Q 372 3047 722 3315 
Q 1072 3584 1716 3584 
Q 2034 3584 2315 3537 
Q 2597 3491 2834 3397 
z
" transform="scale(0.015625)"/>
      <path id="DejaVuSans-57" d="M 1172 4494 
L 1172 3500 
L 2356 3500 
L 2356 3053 
L 1172 3053 
L 1172 1153 
Q 1172 725 1289 603 
Q 1406 481 1766 481 
L 2356 481 
L 2356 0 
L 1766 0 
Q 1100 0 847 248 
Q 594 497 594 1153 
L 594 3053 
L 172 3053 
L 172 3500 
L 594 3500 
L 594 4494 
L 1172 4494 
z
" transform="scale(0.015625)"/>
      <path id="DejaVuSans-52" d="M 1959 3097 
Q 1497 3097 1228 2736 
Q 959 2375 959 1747 
Q 959 1119 1226 758 
Q 1494 397 1959 397 
Q 2419 397 2687 759 
Q 2956 1122 2956 1747 
Q 2956 2369 2687 2733 
Q 2419 3097 1959 3097 
z
M 1959 3584 
Q 2709 3584 3137 3096 
Q 3566 2609 3566 1747 
Q 3566 888 3137 398 
Q 2709 -91 1959 -91 
Q 1206 -91 779 398 
Q 353 888 353 1747 
Q 353 2609 779 3096 
Q 1206 3584 1959 3584 
z
" transform="scale(0.015625)"/>
      <path id="DejaVuSans-51" d="M 3513 2113 
L 3513 0 
L 2938 0 
L 2938 2094 
Q 2938 2591 2744 2837 
Q 2550 3084 2163 3084 
Q 1697 3084 1428 2787 
Q 1159 2491 1159 1978 
L 1159 0 
L 581 0 
L 581 3500 
L 1159 3500 
L 1159 2956 
Q 1366 3272 1645 3428 
Q 1925 3584 2291 3584 
Q 2894 3584 3203 3211 
Q 3513 2838 3513 2113 
z
" transform="scale(0.015625)"/>
      <path id="DejaVuSans-31" d="M 628 4666 
L 1478 4666 
L 3547 763 
L 3547 4666 
L 4159 4666 
L 4159 0 
L 3309 0 
L 1241 3903 
L 1241 0 
L 628 0 
L 628 4666 
z
" transform="scale(0.015625)"/>
      <path id="DejaVuSans-2f" d="M 628 4666 
L 1259 4666 
L 1259 531 
L 3531 531 
L 3531 0 
L 628 0 
L 628 4666 
z
" transform="scale(0.015625)"/>
     </defs>
     <use xlink:href="#DejaVuSans-25"/>
     <use xlink:href="#DejaVuSans-3" transform="translate(68.609375 0)"/>
     <use xlink:href="#DejaVuSans-44" transform="translate(100.390625 0)"/>
     <use xlink:href="#DejaVuSans-46" transform="translate(161.671875 0)"/>
     <use xlink:href="#DejaVuSans-54" transform="translate(216.65625 0)"/>
     <use xlink:href="#DejaVuSans-58" transform="translate(280.140625 0)"/>
     <use xlink:href="#DejaVuSans-4c" transform="translate(343.515625 0)"/>
     <use xlink:href="#DejaVuSans-56" transform="translate(371.296875 0)"/>
     <use xlink:href="#DejaVuSans-4c" transform="translate(423.390625 0)"/>
     <use xlink:href="#DejaVuSans-57" transform="translate(451.171875 0)"/>
     <use xlink:href="#DejaVuSans-4c" transform="translate(490.375 0)"/>
     <use xlink:href="#DejaVuSans-52" transform="translate(518.15625 0)"/>
     <use xlink:href="#DejaVuSans-51" transform="translate(579.34375 0)"/>
     <use xlink:href="#DejaVuSans-3" transform="translate(642.71875 0)"/>
     <use xlink:href="#DejaVuSans-31" transform="translate(674.5 0)"/>
     <use xlink:href="#DejaVuSans-2f" transform="translate(749.3125 0)"/>
     <use xlink:href="#DejaVuSans-2f" transform="translate(805.03125 0)"/>
    </g>
   </g>
   <g id="legend_1">
    <g id="patch_7">
     <path d="M 35.703125 64.72 
L 104.670625 64.72 
Q 106.270625 64.72 106.270625 63.12 
L 106.270625 27.918125 
Q 106.270625 26.318125 104.670625 26.318125 
L 35.703125 26.318125 
Q 34.103125 26.318125 34.103125 27.918125 
L 34.103125 63.12 
Q 34.103125 64.72 35.703125 64.72 
z
" style="fill: #ffffff; opacity: 0.8; stroke: #cccccc; stroke-linejoin: miter"/>
    </g>
    <g id="line2d_24">
     <path d="M 37.303125 32.796875 
L 45.303125 32.796875 
L 53.303125 32.796875 
" style="fill: none; stroke: #2563eb; stroke-width: 1.5; stroke-linecap: square"/>
     <g>
      <use xlink:href="#m8a4181baf2" x="45.303125" y="32.796875" style="fill: #2563eb; stroke: #2563eb"/>
     </g>
    </g>
    <g id="text_13">
     <!-- Lora -->
     <g transform="translate(59.703125 35.596875) scale(0.08 -0.08)">
      <defs>
       <path id="DejaVuSans-55" d="M 2631 2963 
Q 2534 3019 2420 3045 
Q 2306 3072 2169 3072 
Q 1681 3072 1420 2755 
Q 1159 2438 1159 1844 
L 1159 0 
L 581 0 
L 581 3500 
L 1159 3500 
L 1159 2956 
Q 1341 3275 1631 3429 
Q 1922 3584 2338 3584 
Q 2397 3584 2469 3576 
Q 2541 3569 2628 3553 
L 2631 2963 
z
" transform="scale(0.015625)"/>
      </defs>
      <use xlink:href="#DejaVuSans-2f"/>
      <use xlink:href="#DejaVuSans-52" transform="translate(53.96875 0)"/>
      <use xlink:href="#DejaVuSans-55" transform="translate(115.15625 0)"/>
      <use xlink:href="#DejaVuSans-44" transform="translate(156.265625 0)"/>
     </g>
    </g>
    <g id="line2d_25">
     <path d="M 37.303125 44.7975 
L 45.303125 44.7975 
L 53.303125 44.7975 
" style="fill: none; stroke: #dc2626; stroke-width: 1.5; stroke-linecap: square"/>
     <g>
      <use xlink:href="#m4837b572c6" x="45.303125" y="44.7975" style="fill: #dc2626; stroke: #dc2626; stroke-linejoin: miter"/>
     </g>
    </g>
    <g id="text_14">
     <!-- Symmetric -->
     <g transform="translate(59.703125 47.5975) scale(0.08 -0.08)">
      <defs>
       <path id="DejaVuSans-36" d="M 3425 4513 
L 3425 3897 
Q 3066 4069 2747 4153 
Q 2428 4238 2131 4238 
Q 1616 4238 1336 4038 
Q 1056 3838 1056 3469 
Q 1056 3159 1242 3001 
Q 1428 2844 1947 2747 
L 2328 2669 
Q 3034 2534 3370 2195 
Q 3706 1856 3706 1288 
Q 3706 609 3251 259 
Q 2797 -91 1919 -91 
Q 1588 -91 1214 -16 
Q 841 59 441 206 
L 441 856 
Q 825 641 1194 531 
Q 1563 422 1919 422 
Q 2459 422 2753 634 
Q 3047 847 3047 1241 
Q 3047 1584 2836 1778 
Q 2625 1972 2144 2069 
L 1759 2144 
Q 1053 2284 737 2584 
Q 422 2884 422 3419 
Q 422 4038 858 4394 
Q 1294 4750 2059 4750 
Q 2388 4750 2728 4690 
Q 3069 4631 3425 4513 
z
" transform="scale(0.015625)"/>
       <path id="DejaVuSans-5c" d="M 2059 -325 
Q 1816 -950 1584 -1140 
Q 1353 -1331 966 -1331 
L 506 -1331 
L 506 -850 
L 844 -850 
Q 1081 -850 1212 -737 
Q 1344 -625 1503 -206 
L 1606 56 
L 191 3500 
L 800 3500 
L 1894 763 
L 2988 3500 
L 3597 3500 
L 2059 -325 
z
" transform="scale(0.015625)"/>
       <path id="DejaVuSans-50" d="M 3328 2828 
Q 3544 3216 3844 3400 
Q 4144 3584 4550 3584 
Q 5097 3584 5394 3201 
Q 5691 2819 5691 2113 
L 5691 0 
L 5113 0 
L 5113 2094 
Q 5113 2597 4934 2840 
Q 4756 3084 4391 3084 
Q 3944 3084 3684 2787 
Q 3425 2491 3425 1978 
L 3425 0 
L 2847 0 
L 2847 2094 
Q 2847 2600 2669 2842 
Q 2491 3084 2119 3084 
Q 1678 3084 1418 2786 
Q 1159 2488 1159 1978 
L 1159 0 
L 581 0 
L 581 3500 
L 1159 3500 
L 1159 2956 
Q 1356 3278 1631 3431 
Q 1906 3584 2284 3584 
Q 2666 3584 2933 3390 
Q 3200 3197 3328 2828 
z
" transform="scale(0.015625)"/>
       <path id="DejaVuSans-48" d="M 3597 1894 
L 3597 1613 
L 953 1613 
Q 991 1019 1311 708 
Q 1631 397 2203 397 
Q 2534 397 2845 478 
Q 3156 559 3463 722 
L 3463 178 
Q 3153 47 2828 -22 
Q 2503 -91 2169 -91 
Q 1331 -91 842 396 
Q 353 884 353 1716 
Q 353 2575 817 3079 
Q 1281 3584 2069 3584 
Q 2775 3584 3186 3129 
Q 3597 2675 3597 1894 
z
M 3022 2063 
Q 3016 2534 2758 2815 
Q 2500 3097 2075 3097 
Q 1594 3097 1305 2825 
Q 1016 2553 972 2059 
L 3022 2063 
z
" transform="scale(0.015625)"/>
      </defs>
      <use xlink:href="#DejaVuSans-36"/>
      <use xlink:href="#DejaVuSans-5c" transform="translate(63.484375 0)"/>
      <use xlink:href="#DejaVuSans-50" transform="translate(122.671875 0)"/>
      <use xlink:href="#DejaVuSans-50" transform="translate(220.078125 0)"/>
      <use xlink:href="#DejaVuSans-48" transform="translate(317.484375 0)"/>
      <use xlink:href="#DejaVuSans-57" transform="translate(379.015625 0)"/>
      <use xlink:href="#DejaVuSans-55" transform="translate(418.21875 0)"/>
      <use xlink:href="#DejaVuSans-4c" transform="translate(459.328125 0)"/>
      <use xlink:href="#DejaVuSans-46" transform="translate(487.109375 0)"/>
     </g>
    </g>
    <g id="line2d_26">
     <path d="M 37.303125 56.798125 
L 45.303125 56.798125 
L 53.303125 56.798125 
" style="fill: none; stroke: #16a34a; stroke-width: 1.5; stroke-linecap: square"/>
     <g>
      <use xlink:href="#m48ce4bd8bd" x="45.303125" y="56.798125" style="fill: #16a34a; stroke: #16a34a; stroke-linejoin: miter"/>
     </g>
    </g>
    <g id="text_15">
     <!-- Combined -->
     <g transform="translate(59.703125 59.598125) scale(0.08 -0.08)">
      <defs>
       <path id="DejaVuSans-26" d="M 4122 4306 
L 4122 3641 
Q 3803 3938 3442 4084 
Q 3081 4231 2675 4231 
Q 1875 4231 1450 3742 
Q 1025 3253 1025 2328 
Q 1025 1406 1450 917 
Q 1875 428 2675 428 
Q 3081 428 3442 575 
Q 3803 722 4122 1019 
L 4122 359 
Q 3791 134 3420 21 
Q 3050 -91 2638 -91 
Q 1578 -91 968 557 
Q 359 1206 359 2328 
Q 359 3453 968 4101 
Q 1578 4750 2638 4750 
Q 3056 4750 3426 4639 
Q 3797 4528 4122 4306 
z
" transform="scale(0.015625)"/>
       <path id="DejaVuSans-45" d="M 3116 1747 
Q 3116 2381 2855 2742 
Q 2594 3103 2138 3103 
Q 1681 3103 1420 2742 
Q 1159 2381 1159 1747 
Q 1159 1113 1420 752 
Q 1681 391 2138 391 
Q 2594 391 2855 752 
Q 3116 1113 3116 1747 
z
M 1159 2969 
Q 1341 3281 1617 3432 
Q 1894 3584 2278 3584 
Q 2916 3584 3314 3078 
Q 3713 2572 3713 1747 
Q 3713 922 3314 415 
Q 2916 -91 2278 -91 
Q 1894 -91 1617 61 
Q 1341 213 1159 525 
L 1159 0 
L 581 0 
L 581 4863 
L 1159 4863 
L 1159 2969 
z
" transform="scale(0.015625)"/>
       <path id="DejaVuSans-47" d="M 2906 2969 
L 2906 4863 
L 3481 4863 
L 3481 0 
L 2906 0 
L 2906 525 
Q 2725 213 2448 61 
Q 2172 -91 1784 -91 
Q 1150 -91 751 415 
Q 353 922 353 1747 
Q 353 2572 751 3078 
Q 1150 3584 1784 3584 
Q 2172 3584 2448 3432 
Q 2725 3281 2906 2969 
z
M 947 1747 
Q 947 1113 1208 752 
Q 1469 391 1925 391 
Q 2381 391 2643 752 
Q 2906 1113 2906 1747 
Q 2906 2381 2643 2742 
Q 2381 3103 1925 3103 
Q 1469 3103 1208 2742 
Q 947 2381 947 1747 
z
" transform="scale(0.015625)"/>
      </defs>
      <use xlink:href="#DejaVuSans-26"/>
      <use xlink:href="#DejaVuSans-52" transform="translate(69.828125 0)"/>
      <use xlink:href="#DejaVuSans-50" transform="translate(131.015625 0)"/>
      <use xlink:href="#DejaVuSans-45" transform="translate(228.421875 0)"/>
      <use xlink:href="#DejaVuSans-4c" transform="translate(291.90625 0)"/>
      <use xlink:href="#DejaVuSans-51" transform="translate(319.6875 0)"/>
      <use xlink:href="#DejaVuSans-48" transform="translate(383.0625 0)"/>
      <use xlink:href="#DejaVuSans-47" transform="translate(444.59375 0)"/>
     </g>
    </g>
   </g>
  </g>
  <g id="axes_2">
   <g id="patch_8">
    <path d="M 355.903125 240.273438 
L 648.063125 240.273438 
L 648.063125 22.318125 
L 355.903125 22.318125 
z
" style="fill: #ffffff"/>
   </g>
   <g id="matplotlib.axis_3">
    <g id="xtick_5">
     <g id="line2d_27">
      <path d="M 369.183125 240.273438 
L 369.183125 22.318125 
" clip-path="url(#pc6024ff6b6)" style="fill: none; stroke: #b0b0b0; stroke-opacity: 0.25; stroke-width: 0.8; stroke-linecap: square"/>
     </g>
     <g id="line2d_28">
      <g>
       <use xlink:href="#m1d74b7d400" x="369.183125" y="240.273438" style="stroke: #000000; stroke-width: 0.8"/>
      </g>
     </g>
     <g id="text_16">
      <!-- $\mathdefault{0}$ -->
      <g transform="translate(365.983125 254.871094) scale(0.1 -0.1)">
       <use xlink:href="#DejaVuSans-13" transform="translate(0 0.78125)"/>
      </g>
     </g>
    </g>
    <g id="xtick_6">
     <g id="line2d_29">
      <path d="M 451.427272 240.273438 
L 451.427272 22.318125 
" clip-path="url(#pc6024ff6b6)" style="fill: none; stroke: #b0b0b0; stroke-opacity: 0.25; stroke-width: 0.8; stroke-linecap: square"/>
     </g>
     <g id="line2d_30">
      <g>
       <use xlink:href="#m1d74b7d400" x="451.427272" y="240.273438" style="stroke: #000000; stroke-width: 0.8"/>
      </g>
     </g>
     <g id="text_17">
      <!-- $\mathdefault{10^{0}}$ -->
      <g transform="translate(442.627272 256.673438) scale(0.1 -0.1)">
       <use xlink:href="#DejaVuSans-14" transform="translate(0 0.746875)"/>
       <use xlink:href="#DejaVuSans-13" transform="translate(63.623047 0.746875)"/>
       <use xlink:href="#DejaVuSans-13" transform="translate(128.203125 42.046875) scale(0.7)"/>
      </g>
     </g>
    </g>
    <g id="xtick_7">
     <g id="line2d_31">
      <path d="M 525.447005 240.273438 
L 525.447005 22.318125 
" clip-path="url(#pc6024ff6b6)" style="fill: none; stroke: #b0b0b0; stroke-opacity: 0.25; stroke-width: 0.8; stroke-linecap: square"/>
     </g>
     <g id="line2d_32">
      <g>
       <use xlink:href="#m1d74b7d400" x="525.447005" y="240.273438" style="stroke: #000000; stroke-width: 0.8"/>
      </g>
     </g>
     <g id="text_18">
      <!-- $\mathdefault{10^{1}}$ -->
      <g transform="translate(516.647005 256.573438) scale(0.1 -0.1)">
       <use xlink:href="#DejaVuSans-14" transform="translate(0 0.665625)"/>
       <use xlink:href="#DejaVuSans-13" transform="translate(63.623047 0.665625)"/>
       <use xlink:href="#DejaVuSans-14" transform="translate(128.203125 41.965625) scale(0.7)"/>
      </g>
     </g>
    </g>
    <g id="xtick_8">
     <g id="line2d_33">
      <path d="M 599.466737 240.273438 
L 599.466737 22.318125 
" clip-path="url(#pc6024ff6b6)" style="fill: none; stroke: #b0b0b0; stroke-opacity: 0.25; stroke-width: 0.8; stroke-linecap: square"/>
     </g>
     <g id="line2d_34">
      <g>
       <use xlink:href="#m1d74b7d400" x="599.466737" y="240.273438" style="stroke: #000000; stroke-width: 0.8"/>
      </g>
     </g>
     <g id="text_19">
      <!-- $\mathdefault{10^{2}}$ -->
      <g transform="translate(590.666737 256.673438) scale(0.1 -0.1)">
       <use xlink:href="#DejaVuSans-14" transform="translate(0 0.746875)"/>
       <use xlink:href="#DejaVuSans-13" transform="translate(63.623047 0.746875)"/>
       <use xlink:href="#DejaVuSans-15" transform="translate(128.203125 42.046875) scale(0.7)"/>
      </g>
     </g>
    </g>
    <g id="text_20">
     <!-- λ -->
     <g transform="translate(499.02375 270.674219) scale(0.1 -0.1)">
      <use xlink:href="#DejaVuSans-34f"/>
     </g>
    </g>
   </g>
   <g id="matplotlib.axis_4">
    <g id="ytick_7">
     <g id="line2d_35">
      <path d="M 355.903125 235.889377 
L 648.063125 235.889377 
" clip-path="url(#pc6024ff6b6)" style="fill: none; stroke: #b0b0b0; stroke-opacity: 0.25; stroke-width: 0.8; stroke-linecap: square"/>
     </g>
     <g id="line2d_36">
      <g>
       <use xlink:href="#m773320a767" x="355.903125" y="235.889377" style="stroke: #000000; stroke-width: 0.8"/>
      </g>
     </g>
     <g id="text_21">
      <!-- 0.0 -->
      <g transform="translate(333 239.688205) scale(0.1 -0.1)">
       <use xlink:href="#DejaVuSans-13"/>
       <use xlink:href="#DejaVuSans-11" transform="translate(63.625 0)"/>
       <use xlink:href="#DejaVuSans-13" transform="translate(95.40625 0)"/>
      </g>
     </g>
    </g>
    <g id="ytick_8">
     <g id="line2d_37">
      <path d="M 355.903125 202.427624 
L 648.063125 202.427624 
" clip-path="url(#pc6024ff6b6)" style="fill: none; stroke: #b0b0b0; stroke-opacity: 0.25; stroke-width: 0.8; stroke-linecap: square"/>
     </g>
     <g id="line2d_38">
      <g>
       <use xlink:href="#m773320a767" x="355.903125" y="202.427624" style="stroke: #000000; stroke-width: 0.8"/>
      </g>
     </g>
     <g id="text_22">
      <!-- 0.5 -->
      <g transform="translate(333 206.226452) scale(0.1 -0.1)">
       <use xlink:href="#DejaVuSans-13"/>
       <use xlink:href="#DejaVuSans-11" transform="translate(63.625 0)"/>
       <use xlink:href="#DejaVuSans-18" transform="translate(95.40625 0)"/>
      </g>
     </g>
    </g>
    <g id="ytick_9">
     <g id="line2d_39">
      <path d="M 355.903125 168.965871 
L 648.063125 168.965871 
" clip-path="url(#pc6024ff6b6)" style="fill: none; stroke: #b0b0b0; stroke-opacity: 0.25; stroke-width: 0.8; stroke-linecap: square"/>
     </g>
     <g id="line2d_40">
      <g>
       <use xlink:href="#m773320a767" x="355.903125" y="168.965871" style="stroke: #000000; stroke-width: 0.8"/>
      </g>
     </g>
     <g id="text_23">
      <!-- 1.0 -->
      <g transform="translate(333 172.764699) scale(0.1 -0.1)">
       <use xlink:href="#DejaVuSans-14"/>
       <use xlink:href="#DejaVuSans-11" transform="translate(63.625 0)"/>
       <use xlink:href="#DejaVuSans-13" transform="translate(95.40625 0)"/>
      </g>
     </g>
    </g>
    <g id="ytick_10">
     <g id="line2d_41">
      <path d="M 355.903125 135.504118 
L 648.063125 135.504118 
" clip-path="url(#pc6024ff6b6)" style="fill: none; stroke: #b0b0b0; stroke-opacity: 0.25; stroke-width: 0.8; stroke-linecap: square"/>
     </g>
     <g id="line2d_42">
      <g>
       <use xlink:href="#m773320a767" x="355.903125" y="135.504118" style="stroke: #000000; stroke-width: 0.8"/>
      </g>
     </g>
     <g id="text_24">
      <!-- 1.5 -->
      <g transform="translate(333 139.302946) scale(0.1 -0.1)">
       <use xlink:href="#DejaVuSans-14"/>
       <use xlink:href="#DejaVuSans-11" transform="translate(63.625 0)"/>
       <use xlink:href="#DejaVuSans-18" transform="translate(95.40625 0)"/>
      </g>
     </g>
    </g>
    <g id="ytick_11">
     <g id="line2d_43">
      <path d="M 355.903125 102.042364 
L 648.063125 102.042364 
" clip-path="url(#pc6024ff6b6)" style="fill: none; stroke: #b0b0b0; stroke-opacity: 0.25; stroke-width: 0.8; stroke-linecap: square"/>
     </g>
     <g id="line2d_44">
      <g>
       <use xlink:href="#m773320a767" x="355.903125" y="102.042364" style="stroke: #000000; stroke-width: 0.8"/>
      </g>
     </g>
     <g id="text_25">
      <!-- 2.0 -->
      <g transform="translate(333 105.841193) scale(0.1 -0.1)">
       <use xlink:href="#DejaVuSans-15"/>
       <use xlink:href="#DejaVuSans-11" transform="translate(63.625 0)"/>
       <use xlink:href="#DejaVuSans-13" transform="translate(95.40625 0)"/>
      </g>
     </g>
    </g>
    <g id="ytick_12">
     <g id="line2d_45">
      <path d="M 355.903125 68.580611 
L 648.063125 68.580611 
" clip-path="url(#pc6024ff6b6)" style="fill: none; stroke: #b0b0b0; stroke-opacity: 0.25; stroke-width: 0.8; stroke-linecap: square"/>
     </g>
     <g id="line2d_46">
      <g>
       <use xlink:href="#m773320a767" x="355.903125" y="68.580611" style="stroke: #000000; stroke-width: 0.8"/>
      </g>
     </g>
     <g id="text_26">
      <!-- 2.5 -->
      <g transform="translate(333 72.379439) scale(0.1 -0.1)">
       <use xlink:href="#DejaVuSans-15"/>
       <use xlink:href="#DejaVuSans-11" transform="translate(63.625 0)"/>
       <use xlink:href="#DejaVuSans-18" transform="translate(95.40625 0)"/>
      </g>
     </g>
    </g>
    <g id="ytick_13">
     <g id="line2d_47">
      <path d="M 355.903125 35.118858 
L 648.063125 35.118858 
" clip-path="url(#pc6024ff6b6)" style="fill: none; stroke: #b0b0b0; stroke-opacity: 0.25; stroke-width: 0.8; stroke-linecap: square"/>
     </g>
     <g id="line2d_48">
      <g>
       <use xlink:href="#m773320a767" x="355.903125" y="35.118858" style="stroke: #000000; stroke-width: 0.8"/>
      </g>
     </g>
     <g id="text_27">
      <!-- 3.0 -->
      <g transform="translate(333 38.917686) scale(0.1 -0.1)">
       <use xlink:href="#DejaVuSans-16"/>
       <use xlink:href="#DejaVuSans-11" transform="translate(63.625 0)"/>
       <use xlink:href="#DejaVuSans-13" transform="translate(95.40625 0)"/>
      </g>
     </g>
    </g>
   </g>
   <g id="line2d_49">
    <path d="M 369.183125 205.876492 
L 451.427272 200.034884 
L 525.447005 156.81046 
L 560.763392 88.385889 
L 577.184578 68.591527 
L 599.466737 51.190674 
L 634.783125 33.823075 
" clip-path="url(#pc6024ff6b6)" style="fill: none; stroke: #2563eb; stroke-width: 1.5; stroke-linecap: square"/>
    <g clip-path="url(#pc6024ff6b6)">
     <use xlink:href="#m8a4181baf2" x="369.183125" y="205.876492" style="fill: #2563eb; stroke: #2563eb"/>
     <use xlink:href="#m8a4181baf2" x="451.427272" y="200.034884" style="fill: #2563eb; stroke: #2563eb"/>
     <use xlink:href="#m8a4181baf2" x="525.447005" y="156.81046" style="fill: #2563eb; stroke: #2563eb"/>
     <use xlink:href="#m8a4181baf2" x="560.763392" y="88.385889" style="fill: #2563eb; stroke: #2563eb"/>
     <use xlink:href="#m8a4181baf2" x="577.184578" y="68.591527" style="fill: #2563eb; stroke: #2563eb"/>
     <use xlink:href="#m8a4181baf2" x="599.466737" y="51.190674" style="fill: #2563eb; stroke: #2563eb"/>
     <use xlink:href="#m8a4181baf2" x="634.783125" y="33.823075" style="fill: #2563eb; stroke: #2563eb"/>
    </g>
   </g>
   <g id="line2d_50">
    <path d="M 369.183125 230.366378 
L 451.427272 228.551067 
L 525.447005 206.180603 
L 560.763392 152.08118 
L 577.184578 116.598953 
L 599.466737 73.540961 
L 634.783125 46.511444 
" clip-path="url(#pc6024ff6b6)" style="fill: none; stroke: #dc2626; stroke-width: 1.5; stroke-linecap: square"/>
    <g clip-path="url(#pc6024ff6b6)">
     <use xlink:href="#m4837b572c6" x="369.183125" y="230.366378" style="fill: #dc2626; stroke: #dc2626; stroke-linejoin: miter"/>
     <use xlink:href="#m4837b572c6" x="451.427272" y="228.551067" style="fill: #dc2626; stroke: #dc2626; stroke-linejoin: miter"/>
     <use xlink:href="#m4837b572c6" x="525.447005" y="206.180603" style="fill: #dc2626; stroke: #dc2626; stroke-linejoin: miter"/>
     <use xlink:href="#m4837b572c6" x="560.763392" y="152.08118" style="fill: #dc2626; stroke: #dc2626; stroke-linejoin: miter"/>
     <use xlink:href="#m4837b572c6" x="577.184578" y="116.598953" style="fill: #dc2626; stroke: #dc2626; stroke-linejoin: miter"/>
     <use xlink:href="#m4837b572c6" x="599.466737" y="73.540961" style="fill: #dc2626; stroke: #dc2626; stroke-linejoin: miter"/>
     <use xlink:href="#m4837b572c6" x="634.783125" y="46.511444" style="fill: #dc2626; stroke: #dc2626; stroke-linejoin: miter"/>
    </g>
   </g>
   <g id="line2d_51">
    <path d="M 369.183125 209.358825 
L 451.427272 208.361349 
L 525.447005 180.513727 
L 560.763392 125.626783 
L 577.184578 95.751828 
L 599.466737 54.339916 
L 634.783125 32.225185 
" clip-path="url(#pc6024ff6b6)" style="fill: none; stroke: #16a34a; stroke-width: 1.5; stroke-linecap: square"/>
    <g clip-path="url(#pc6024ff6b6)">
     <use xlink:href="#m48ce4bd8bd" x="369.183125" y="209.358825" style="fill: #16a34a; stroke: #16a34a; stroke-linejoin: miter"/>
     <use xlink:href="#m48ce4bd8bd" x="451.427272" y="208.361349" style="fill: #16a34a; stroke: #16a34a; stroke-linejoin: miter"/>
     <use xlink:href="#m48ce4bd8bd" x="525.447005" y="180.513727" style="fill: #16a34a; stroke: #16a34a; stroke-linejoin: miter"/>
     <use xlink:href="#m48ce4bd8bd" x="560.763392" y="125.626783" style="fill: #16a34a; stroke: #16a34a; stroke-linejoin: miter"/>
     <use xlink:href="#m48ce4bd8bd" x="577.184578" y="95.751828" style="fill: #16a34a; stroke: #16a34a; stroke-linejoin: miter"/>
     <use xlink:href="#m48ce4bd8bd" x="599.466737" y="54.339916" style="fill: #16a34a; stroke: #16a34a; stroke-linejoin: miter"/>
     <use xlink:href="#m48ce4bd8bd" x="634.783125" y="32.225185" style="fill: #16a34a; stroke: #16a34a; stroke-linejoin: miter"/>
    </g>
   </g>
   <g id="patch_9">
    <path d="M 355.903125 240.273438 
L 355.903125 22.318125 
" style="fill: none; stroke: #000000; stroke-width: 0.8; stroke-linejoin: miter; stroke-linecap: square"/>
   </g>
   <g id="patch_10">
    <path d="M 648.063125 240.273438 
L 648.063125 22.318125 
" style="fill: none; stroke: #000000; stroke-width: 0.8; stroke-linejoin: miter; stroke-linecap: square"/>
   </g>
   <g id="patch_11">
    <path d="M 355.903125 240.273438 
L 648.063125 240.273438 
" style="fill: none; stroke: #000000; stroke-width: 0.8; stroke-linejoin: miter; stroke-linecap: square"/>
   </g>
   <g id="patch_12">
    <path d="M 355.903125 22.318125 
L 648.063125 22.318125 
" style="fill: none; stroke: #000000; stroke-width: 0.8; stroke-linejoin: miter; stroke-linecap: square"/>
   </g>
   <g id="text_28">
    <!-- C acquisition NLL -->
    <g transform="translate(450.265 16.318125) scale(0.12 -0.12)">
     <use xlink:href="#DejaVuSans-26"/>
     <use xlink:href="#DejaVuSans-3" transform="translate(69.828125 0)"/>
     <use xlink:href="#DejaVuSans-44" transform="translate(101.609375 0)"/>
     <use xlink:href="#DejaVuSans-46" transform="translate(162.890625 0)"/>
     <use xlink:href="#DejaVuSans-54" transform="translate(217.875 0)"/>
     <use xlink:href="#DejaVuSans-58" transform="translate(281.359375 0)"/>
     <use xlink:href="#DejaVuSans-4c" transform="translate(344.734375 0)"/>
     <use xlink:href="#DejaVuSans-56" transform="translate(372.515625 0)"/>
     <use xlink:href="#DejaVuSans-4c" transform="translate(424.609375 0)"/>
     <use xlink:href="#DejaVuSans-57" transform="translate(452.390625 0)"/>
     <use xlink:href="#DejaVuSans-4c" transform="translate(491.59375 0)"/>
     <use xlink:href="#DejaVuSans-52" transform="translate(519.375 0)"/>
     <use xlink:href="#DejaVuSans-51" transform="translate(580.5625 0)"/>
     <use xlink:href="#DejaVuSans-3" transform="translate(643.9375 0)"/>
     <use xlink:href="#DejaVuSans-31" transform="translate(675.71875 0)"/>
     <use xlink:href="#DejaVuSans-2f" transform="translate(750.53125 0)"/>
     <use xlink:href="#DejaVuSans-2f" transform="translate(806.25 0)"/>
    </g>
   </g>
  </g>
 </g>
 <defs>
  <clipPath id="p32698297f5">
   <rect x="30.103125" y="22.318125" width="292.16" height="217.955312"/>
  </clipPath>
  <clipPath id="pc6024ff6b6">
   <rect x="355.903125" y="22.318125" width="292.16" height="217.955312"/>
  </clipPath>
 </defs>
</svg>
